<?xml version="1.0" encoding="UTF-8" ?>
<svg version="1.1" width="96" height="96" xmlns="http://www.w3.org/2000/svg" shape-rendering="crispEdges">
<rect x="30" y="6" width="6" height="6" fill="#FFFFFF" />
<rect x="36" y="6" width="6" height="6" fill="#FFFFFF" />
<rect x="42" y="6" width="6" height="6" fill="#FFFFFF" />
<rect x="48" y="6" width="6" height="6" fill="#FFFFFF" />
<rect x="12" y="12" width="6" height="6" fill="#FFFFFF" />
<rect x="18" y="12" width="6" height="6" fill="#FFFFFF" />
<rect x="24" y="12" width="6" height="6" fill="#FFFFFF" />
<rect x="30" y="12" width="6" height="6" fill="#FFFFFF" />
<rect x="36" y="12" width="6" height="6" fill="#FFFFFF" />
<rect x="42" y="12" width="6" height="6" fill="#FFFFFF" />
<rect x="48" y="12" width="6" height="6" fill="#FFFFFF" />
<rect x="54" y="12" width="6" height="6" fill="#FFFFFF" />
<rect x="60" y="12" width="6" height="6" fill="#FFFFFF" />
<rect x="66" y="12" width="6" height="6" fill="#FFFFFF" />
<rect x="72" y="12" width="6" height="6" fill="#FFFFFF" />
<rect x="78" y="12" width="6" height="6" fill="#FFFFFF" />
<rect x="18" y="18" width="6" height="6" fill="#FFFFFF" />
<rect x="24" y="18" width="6" height="6" fill="#FFFFFF" />
<rect x="30" y="18" width="6" height="6" fill="#FFFFFF" />
<rect x="36" y="18" width="6" height="6" fill="#FFFFFF" />
<rect x="42" y="18" width="6" height="6" fill="#FFFFFF" />
<rect x="48" y="18" width="6" height="6" fill="#FFFFFF" />
<rect x="54" y="18" width="6" height="6" fill="#FFFFFF" />
<rect x="60" y="18" width="6" height="6" fill="#FFFFFF" />
<rect x="66" y="18" width="6" height="6" fill="#FFFFFF" />
<rect x="72" y="18" width="6" height="6" fill="#FFFFFF" />
<rect x="18" y="24" width="6" height="6" fill="#FFFFFF" />
<rect x="24" y="24" width="6" height="6" fill="#FFFFFF" />
<rect x="30" y="24" width="6" height="6" fill="#FFFFFF" />
<rect x="36" y="24" width="6" height="6" fill="#FFFFFF" />
<rect x="42" y="24" width="6" height="6" fill="#FFFFFF" />
<rect x="48" y="24" width="6" height="6" fill="#FFFFFF" />
<rect x="54" y="24" width="6" height="6" fill="#FFFFFF" />
<rect x="60" y="24" width="6" height="6" fill="#FFFFFF" />
<rect x="66" y="24" width="6" height="6" fill="#FFFFFF" />
<rect x="72" y="24" width="6" height="6" fill="#FFFFFF" />
<rect x="18" y="30" width="6" height="6" fill="#FFFFFF" />
<rect x="72" y="30" width="6" height="6" fill="#FFFFFF" />
<rect x="18" y="36" width="6" height="6" fill="#FFFFFF" />
<rect x="72" y="36" width="6" height="6" fill="#FFFFFF" />
<rect x="18" y="42" width="6" height="6" fill="#FFFFFF" />
<rect x="30" y="42" width="6" height="6" fill="#FFFFFF" />
<rect x="36" y="42" width="6" height="6" fill="#FFFFFF" />
<rect x="54" y="42" width="6" height="6" fill="#FFFFFF" />
<rect x="60" y="42" width="6" height="6" fill="#FFFFFF" />
<rect x="72" y="42" width="6" height="6" fill="#FFFFFF" />
<rect x="6" y="48" width="6" height="6" fill="#FFFFFF" />
<rect x="18" y="48" width="6" height="6" fill="#FFFFFF" />
<rect x="72" y="48" width="6" height="6" fill="#FFFFFF" />
<rect x="6" y="54" width="6" height="6" fill="#FFFFFF" />
<rect x="18" y="54" width="6" height="6" fill="#FFFFFF" />
<rect x="72" y="54" width="6" height="6" fill="#FFFFFF" />
<rect x="12" y="60" width="6" height="6" fill="#FFFFFF" />
<rect x="18" y="60" width="6" height="6" fill="#FFFFFF" />
<rect x="42" y="60" width="6" height="6" fill="#FFFFFF" />
<rect x="48" y="60" width="6" height="6" fill="#FFFFFF" />
<rect x="72" y="60" width="6" height="6" fill="#FFFFFF" />
<rect x="78" y="60" width="6" height="6" fill="#FFFFFF" />
<rect x="18" y="66" width="6" height="6" fill="#FFFFFF" />
<rect x="72" y="66" width="6" height="6" fill="#FFFFFF" />
<rect x="84" y="66" width="6" height="6" fill="#FFFFFF" />
<rect x="18" y="72" width="6" height="6" fill="#FFFFFF" />
<rect x="72" y="72" width="6" height="6" fill="#FFFFFF" />
<rect x="84" y="72" width="6" height="6" fill="#FFFFFF" />
<rect x="18" y="78" width="6" height="6" fill="#FFFFFF" />
<rect x="24" y="78" width="6" height="6" fill="#FFFFFF" />
<rect x="30" y="78" width="6" height="6" fill="#FFFFFF" />
<rect x="36" y="78" width="6" height="6" fill="#FFFFFF" />
<rect x="42" y="78" width="6" height="6" fill="#FFFFFF" />
<rect x="48" y="78" width="6" height="6" fill="#FFFFFF" />
<rect x="54" y="78" width="6" height="6" fill="#FFFFFF" />
<rect x="60" y="78" width="6" height="6" fill="#FFFFFF" />
<rect x="66" y="78" width="6" height="6" fill="#FFFFFF" />
<rect x="72" y="78" width="6" height="6" fill="#FFFFFF" />
<rect x="30" y="84" width="6" height="6" fill="#FFFFFF" />
<rect x="60" y="84" width="6" height="6" fill="#FFFFFF" />
<rect x="30" y="90" width="6" height="6" fill="#FFFFFF" />
<rect x="60" y="90" width="6" height="6" fill="#FFFFFF" />
</svg>