<?xml version="1.0" encoding="UTF-8" ?>
<svg version="1.1" width="48" height="48" xmlns="http://www.w3.org/2000/svg" shape-rendering="crispEdges">
<rect x="0" y="0" width="3" height="3" fill="#FFFFFF" />
<rect x="3" y="0" width="3" height="3" fill="#FFFFFF" />
<rect x="6" y="0" width="3" height="3" fill="#FFFFFF" />
<rect x="9" y="0" width="3" height="3" fill="#FFFFFF" />
<rect x="12" y="0" width="3" height="3" fill="#FFFFFF" />
<rect x="15" y="0" width="3" height="3" fill="#FFFFFF" />
<rect x="18" y="0" width="3" height="3" fill="#FFFFFF" />
<rect x="21" y="0" width="3" height="3" fill="#FFFFFF" />
<rect x="24" y="0" width="3" height="3" fill="#FFFFFF" />
<rect x="27" y="0" width="3" height="3" fill="#FFFFFF" />
<rect x="30" y="0" width="3" height="3" fill="#FFFFFF" />
<rect x="33" y="0" width="3" height="3" fill="#FFFFFF" />
<rect x="36" y="0" width="3" height="3" fill="#FFFFFF" />
<rect x="39" y="0" width="3" height="3" fill="#FFFFFF" />
<rect x="42" y="0" width="3" height="3" fill="#FFFFFF" />
<rect x="45" y="0" width="3" height="3" fill="#FFFFFF" />
<rect x="0" y="3" width="3" height="3" fill="#FFFFFF" />
<rect x="45" y="3" width="3" height="3" fill="#FFFFFF" />
<rect x="0" y="6" width="3" height="3" fill="#FFFFFF" />
<rect x="45" y="6" width="3" height="3" fill="#FFFFFF" />
<rect x="0" y="9" width="3" height="3" fill="#FFFFFF" />
<rect x="45" y="9" width="3" height="3" fill="#FFFFFF" />
<rect x="0" y="12" width="3" height="3" fill="#FFFFFF" />
<rect x="45" y="12" width="3" height="3" fill="#FFFFFF" />
<rect x="0" y="15" width="3" height="3" fill="#FFFFFF" />
<rect x="9" y="15" width="3" height="3" fill="#FFFFFF" />
<rect x="45" y="15" width="3" height="3" fill="#FFFFFF" />
<rect x="0" y="18" width="3" height="3" fill="#FFFFFF" />
<rect x="12" y="18" width="3" height="3" fill="#FFFFFF" />
<rect x="45" y="18" width="3" height="3" fill="#FFFFFF" />
<rect x="0" y="21" width="3" height="3" fill="#FFFFFF" />
<rect x="15" y="21" width="3" height="3" fill="#FFFFFF" />
<rect x="45" y="21" width="3" height="3" fill="#FFFFFF" />
<rect x="0" y="24" width="3" height="3" fill="#FFFFFF" />
<rect x="18" y="24" width="3" height="3" fill="#FFFFFF" />
<rect x="45" y="24" width="3" height="3" fill="#FFFFFF" />
<rect x="0" y="27" width="3" height="3" fill="#FFFFFF" />
<rect x="15" y="27" width="3" height="3" fill="#FFFFFF" />
<rect x="45" y="27" width="3" height="3" fill="#FFFFFF" />
<rect x="0" y="30" width="3" height="3" fill="#FFFFFF" />
<rect x="12" y="30" width="3" height="3" fill="#FFFFFF" />
<rect x="45" y="30" width="3" height="3" fill="#FFFFFF" />
<rect x="0" y="33" width="3" height="3" fill="#FFFFFF" />
<rect x="9" y="33" width="3" height="3" fill="#FFFFFF" />
<rect x="45" y="33" width="3" height="3" fill="#FFFFFF" />
<rect x="0" y="36" width="3" height="3" fill="#FFFFFF" />
<rect x="24" y="36" width="3" height="3" fill="#FFFFFF" />
<rect x="27" y="36" width="3" height="3" fill="#FFFFFF" />
<rect x="30" y="36" width="3" height="3" fill="#FFFFFF" />
<rect x="33" y="36" width="3" height="3" fill="#FFFFFF" />
<rect x="36" y="36" width="3" height="3" fill="#FFFFFF" />
<rect x="45" y="36" width="3" height="3" fill="#FFFFFF" />
<rect x="0" y="39" width="3" height="3" fill="#FFFFFF" />
<rect x="45" y="39" width="3" height="3" fill="#FFFFFF" />
<rect x="0" y="42" width="3" height="3" fill="#FFFFFF" />
<rect x="45" y="42" width="3" height="3" fill="#FFFFFF" />
<rect x="0" y="45" width="3" height="3" fill="#FFFFFF" />
<rect x="3" y="45" width="3" height="3" fill="#FFFFFF" />
<rect x="6" y="45" width="3" height="3" fill="#FFFFFF" />
<rect x="9" y="45" width="3" height="3" fill="#FFFFFF" />
<rect x="12" y="45" width="3" height="3" fill="#FFFFFF" />
<rect x="15" y="45" width="3" height="3" fill="#FFFFFF" />
<rect x="18" y="45" width="3" height="3" fill="#FFFFFF" />
<rect x="21" y="45" width="3" height="3" fill="#FFFFFF" />
<rect x="24" y="45" width="3" height="3" fill="#FFFFFF" />
<rect x="27" y="45" width="3" height="3" fill="#FFFFFF" />
<rect x="30" y="45" width="3" height="3" fill="#FFFFFF" />
<rect x="33" y="45" width="3" height="3" fill="#FFFFFF" />
<rect x="36" y="45" width="3" height="3" fill="#FFFFFF" />
<rect x="39" y="45" width="3" height="3" fill="#FFFFFF" />
<rect x="42" y="45" width="3" height="3" fill="#FFFFFF" />
<rect x="45" y="45" width="3" height="3" fill="#FFFFFF" />
</svg>